<svg width="398" height="254" xmlns="http://www.w3.org/2000/svg" xmlns:xlink="http://www.w3.org/1999/xlink" overflow="hidden"><defs><clipPath id="clip0"><rect x="535" y="1585" width="398" height="254"/></clipPath></defs><g clip-path="url(#clip0)" transform="translate(-535 -1585)"><path d="M894.693 1823.15 896.849 1600.9C896.821 1592.13 888.297 1585.02 877.777 1585L744.502 1585C733.994 1585.03 725.487 1592.14 725.487 1600.9L725.487 1620.3 592.102 1620.3C581.599 1620.3 573.087 1627.4 573.087 1636.16L573.087 1823.15 535 1823.15 535 1839 933 1839 933 1823.15ZM782.589 1823.15 592.102 1823.15 592.102 1636.16 725.432 1636.16 725.432 1732.95 782.534 1732.95ZM875.677 1823.15 801.605 1823.15 801.605 1733.18C801.622 1731.05 801.113 1728.95 800.113 1727 799.178 1725.11 797.785 1723.4 796.022 1721.98 792.468 1719 787.631 1717.34 782.589 1717.37L744.502 1717.37 744.502 1600.9 877.777 1600.9Z" fill-rule="evenodd"/><path d="M621 1770 640 1770 640 1785 621 1785Z" fill-rule="evenodd"/><path d="M621 1713 640 1713 640 1729 621 1729Z" fill-rule="evenodd"/><path d="M621 1660 640 1660 640 1676 621 1676Z" fill-rule="evenodd"/><path d="M678 1770 697 1770 697 1801 678 1801Z" fill-rule="evenodd"/><path d="M678 1713 697 1713 697 1729 678 1729Z" fill-rule="evenodd"/><path d="M678 1660 697 1660 697 1676 678 1676Z" fill-rule="evenodd"/><path d="M731 1770 750 1770 750 1785 731 1785Z" fill-rule="evenodd"/><path d="M830.014 1624 849 1624 849 1639.85 830.014 1639.85ZM830.014 1688.04 849 1688.04 849 1704.08 830.014 1704.08ZM826.427 1769.98 845.413 1769.98 845.413 1802 826.427 1802ZM773 1624.09 791.986 1624.09 791.986 1639.85 773 1639.85ZM773 1688.14 791.986 1688.14 791.986 1704.17 773 1704.17Z" fill-rule="evenodd"/><path d="M830 1688 849 1688 849 1704 830 1704Z" fill-rule="evenodd"/><path d="M830 1624 849 1624 849 1640 830 1640Z" fill-rule="evenodd"/><path d="M773 1688 792 1688 792 1704 773 1704Z" fill-rule="evenodd"/><path d="M773 1624 792 1624 792 1640 773 1640Z" fill-rule="evenodd"/><path d="M678 1660 697 1660 697 1676 678 1676Z" fill-rule="evenodd"/><path d="M678 1713 697 1713 697 1729 678 1729Z" fill-rule="evenodd"/><path d="M621 1713 640 1713 640 1729 621 1729Z" fill-rule="evenodd"/><path d="M678 1770 697 1770 697 1801 678 1801Z" fill-rule="evenodd"/><path d="M621 1660 640 1660 640 1676 621 1676Z" fill-rule="evenodd"/><path d="M621 1770 640 1770 640 1785 621 1785Z" fill-rule="evenodd"/><path d="M731 1770 750 1770 750 1785 731 1785Z" fill-rule="evenodd"/><path d="M827 1770 846 1770 846 1801 827 1801Z" fill-rule="evenodd"/></g></svg>