<svg width="223" height="178" viewBox="0 0 223 178" fill="none" xmlns="http://www.w3.org/2000/svg">
<path fill-rule="evenodd" clip-rule="evenodd" d="M79.1342 167.576H90.7284V129.273H79.1342V167.576Z" fill="#6A0909"/>
<path fill-rule="evenodd" clip-rule="evenodd" d="M166.188 138.849H175.849V129.273H166.188V138.849Z" fill="#222222"/>
<path fill-rule="evenodd" clip-rule="evenodd" d="M200.837 166.109L202.048 11.076C202.023 4.9794 197.256 -6.10352e-05 191.382 -6.10352e-05H116.973C111.098 0.0318604 106.357 4.9794 106.357 11.076V24.6099H31.8712C26.0225 24.6099 21.256 29.5893 21.256 35.686V166.109H0V177.153H222.222V166.109H200.837ZM138.229 166.109H31.8712V35.686H106.332V103.196H138.203L138.229 166.109ZM190.222 166.109H148.87V103.355C148.87 101.855 148.586 100.387 148.019 99.0462C147.504 97.7375 146.731 96.5246 145.752 95.5351C143.768 93.4603 141.063 92.3112 138.229 92.3112H116.973V11.076H191.382L190.222 166.109Z" fill="#222222"/>
<path fill-rule="evenodd" clip-rule="evenodd" d="M166.188 83.7878H175.849V71.818H166.188V83.7878Z" fill="#FFD600"/>
<path fill-rule="evenodd" clip-rule="evenodd" d="M166.184 38.3037H175.846V28.7279H166.184V38.3037Z" fill="#333333"/>
<path fill-rule="evenodd" clip-rule="evenodd" d="M133.333 83.7878H142.995V71.818H133.333V83.7878Z" fill="#333333"/>
<path fill-rule="evenodd" clip-rule="evenodd" d="M133.333 38.3037H142.995V28.7279H133.333V38.3037Z" fill="#FFD600"/>
<path fill-rule="evenodd" clip-rule="evenodd" d="M79.2267 64.6377H90.8209V52.6679H79.2267V64.6377Z" fill="#222222"/>
<path fill-rule="evenodd" clip-rule="evenodd" d="M79.2267 100.545H90.8209V88.5751H79.2267V100.545Z" fill="#FFD600"/>
<path fill-rule="evenodd" clip-rule="evenodd" d="M48.3089 100.545H57.9707V88.5751H48.3089V100.545Z" fill="#222222"/>
<path fill-rule="evenodd" clip-rule="evenodd" d="M48.3089 64.6377H57.9707V52.6679H48.3089V64.6377Z" fill="#FFD600"/>
<path fill-rule="evenodd" clip-rule="evenodd" d="M48.3089 138.849H57.9707V129.273H48.3089V138.849Z" fill="#FFD600"/>
<path fill-rule="evenodd" clip-rule="evenodd" d="M110.145 138.849H119.807V129.273H110.145V138.849Z" fill="#222222"/>
</svg>
