<svg width="138" height="153" viewBox="0 0 138 153" fill="none" xmlns="http://www.w3.org/2000/svg">
<path fill-rule="evenodd" clip-rule="evenodd" d="M124.8 13.36C115.68 5.11998 104.52 0 92.3199 0C81.1599 0 69 5.11998 60.88 13.36C44.64 29.76 43.64 56.48 57.84 73.92C-3.43323e-05 132.48 0 132.48 0 132.48C21.32 153 21.3199 153 21.3199 153C28.3999 145.8 28.4 145.8 28.4 145.8C14.2 132.48 14.2 132.48 14.2 132.48C19.28 127.32 19.28 127.32 19.28 127.32C33.48 140.68 33.48 140.68 33.48 140.68C40.6 133.48 40.6 133.48 40.6 133.48C26.4 120.16 26.4 120.16 26.4 120.16C64.96 81.12 64.96 81.12 64.96 81.12C72.04 88.32 82.1999 91.4 92.3199 91.4C104.52 91.4 116.68 87.28 124.8 78.04C132.92 69.84 138 58.52 138 46.2C138 33.88 132.92 22.6 124.8 13.36ZM92.3199 10.28C101.48 10.28 110.6 14.36 117.72 20.52C123.8 27.72 127.84 35.92 127.84 46.2C127.84 55.4399 123.8 64.68 117.72 70.84C103.52 85.24 81.16 85.24 68 70.84C60.88 64.68 57.84 55.4399 57.84 46.2C57.84 35.92 60.88 27.72 68 20.52C74.08 14.36 83.1999 10.28 92.3199 10.28Z" fill="black"/>
</svg>
