<svg width="48" height="48" viewBox="0 0 48 48" fill="none" xmlns="http://www.w3.org/2000/svg">
<path d="M44 24C44 35.0457 35.0457 44 24 44C12.9543 44 4 35.0457 4 24C4 12.9543 12.9543 4 24 4C35.0457 4 44 12.9543 44 24Z" fill="#F5F5F5"/>
<path fill-rule="evenodd" clip-rule="evenodd" d="M48 24C48 37.2548 37.2548 48 24 48C10.7452 48 0 37.2548 0 24C0 10.7452 10.7452 0 24 0C37.2548 0 48 10.7452 48 24ZM24 44C35.0457 44 44 35.0457 44 24C44 12.9543 35.0457 4 24 4C12.9543 4 4 12.9543 4 24C4 35.0457 12.9543 44 24 44Z" fill="black"/>
<path d="M26.6505 15.5454V33H23.4886V18.6221H23.3863L19.304 21.2301V18.3323L23.642 15.5454H26.6505Z" fill="black"/>
</svg>
