<svg width="48" height="48" viewBox="0 0 48 48" fill="none" xmlns="http://www.w3.org/2000/svg">
<path d="M44 24C44 35.0457 35.0457 44 24 44C12.9543 44 4 35.0457 4 24C4 12.9543 12.9543 4 24 4C35.0457 4 44 12.9543 44 24Z" fill="#F5F5F5"/>
<path fill-rule="evenodd" clip-rule="evenodd" d="M48 24C48 37.2548 37.2548 48 24 48C10.7452 48 0 37.2548 0 24C0 10.7452 10.7452 0 24 0C37.2548 0 48 10.7452 48 24ZM24 44C35.0457 44 44 35.0457 44 24C44 12.9543 35.0457 4 24 4C12.9543 4 4 12.9543 4 24C4 35.0457 12.9543 44 24 44Z" fill="black"/>
<path d="M24.8154 32.2387C23.5881 32.2387 22.4972 32.0285 21.5426 31.608C20.5938 31.1876 19.8438 30.6023 19.2926 29.8523C18.7415 29.1023 18.4489 28.2359 18.4148 27.2529H21.6193C21.6477 27.7245 21.804 28.1364 22.0881 28.4887C22.3722 28.8353 22.75 29.1052 23.2216 29.2984C23.6932 29.4915 24.2216 29.5881 24.8068 29.5881C25.4318 29.5881 25.9858 29.4802 26.4688 29.2643C26.9517 29.0427 27.3296 28.7359 27.6023 28.3438C27.875 27.9518 28.0085 27.5001 28.0029 26.9887C28.0085 26.4603 27.8722 25.9944 27.5938 25.591C27.3154 25.1876 26.912 24.8722 26.3835 24.645C25.8608 24.4177 25.2301 24.304 24.4915 24.304H22.9489V21.8665H24.4915C25.0995 21.8665 25.6307 21.7614 26.0852 21.5512C26.5455 21.341 26.9063 21.0455 27.1676 20.6648C27.429 20.2785 27.5568 19.8325 27.5512 19.3268C27.5568 18.8325 27.446 18.4035 27.2188 18.0398C26.9972 17.6705 26.6818 17.3836 26.2727 17.179C25.8693 16.9745 25.3949 16.8722 24.8495 16.8722C24.3154 16.8722 23.821 16.9688 23.3665 17.162C22.912 17.3552 22.5455 17.6307 22.2671 17.9887C21.9887 18.341 21.8409 18.7614 21.8239 19.2501H18.7813C18.804 18.2728 19.0852 17.4148 19.625 16.6762C20.1705 15.9319 20.8977 15.3523 21.8068 14.9376C22.7159 14.5171 23.7358 14.3069 24.8665 14.3069C26.0313 14.3069 27.0426 14.5256 27.9006 14.9631C28.7642 15.395 29.4318 15.9773 29.9034 16.7103C30.375 17.4432 30.6108 18.2529 30.6108 19.1393C30.6165 20.1222 30.3267 20.9461 29.7415 21.6109C29.162 22.2756 28.4006 22.7103 27.4574 22.9148V23.0512C28.6847 23.2217 29.625 23.6762 30.2784 24.4148C30.9375 25.1478 31.2642 26.0597 31.2585 27.1506C31.2585 28.1279 30.9801 29.0029 30.4233 29.7756C29.8722 30.5427 29.1108 31.145 28.1392 31.5825C27.1733 32.02 26.0654 32.2387 24.8154 32.2387Z" fill="black"/>
</svg>
