<svg width="48" height="48" viewBox="0 0 48 48" fill="none" xmlns="http://www.w3.org/2000/svg">
<path d="M44 24C44 35.0457 35.0457 44 24 44C12.9543 44 4 35.0457 4 24C4 12.9543 12.9543 4 24 4C35.0457 4 44 12.9543 44 24Z" fill="#F5F5F5"/>
<path fill-rule="evenodd" clip-rule="evenodd" d="M48 24C48 37.2548 37.2548 48 24 48C10.7452 48 0 37.2548 0 24C0 10.7452 10.7452 0 24 0C37.2548 0 48 10.7452 48 24ZM24 44C35.0457 44 44 35.0457 44 24C44 12.9543 35.0457 4 24 4C12.9543 4 4 12.9543 4 24C4 35.0457 12.9543 44 24 44Z" fill="black"/>
<path d="M18.5511 32.0001V29.716L24.6108 23.7756C25.1903 23.1904 25.6733 22.6705 26.0596 22.216C26.446 21.7614 26.7358 21.3211 26.929 20.895C27.1221 20.4688 27.2187 20.0143 27.2187 19.5313C27.2187 18.9802 27.0937 18.5086 26.8437 18.1165C26.5937 17.7188 26.25 17.412 25.8125 17.1961C25.375 16.9802 24.8778 16.8722 24.321 16.8722C23.7471 16.8722 23.2443 16.9915 22.8125 17.2302C22.3807 17.4631 22.0454 17.7955 21.8068 18.2273C21.5739 18.6592 21.4574 19.1734 21.4574 19.77H18.4489C18.4489 18.662 18.7017 17.6989 19.2074 16.8807C19.7131 16.0626 20.4091 15.429 21.2954 14.9802C22.1875 14.5313 23.2102 14.3069 24.3636 14.3069C25.5341 14.3069 26.5625 14.5256 27.4489 14.9631C28.3352 15.4006 29.0227 16.0001 29.5114 16.7614C30.0057 17.5228 30.2528 18.3921 30.2528 19.3694C30.2528 20.0228 30.1278 20.6648 29.8778 21.2955C29.6278 21.9262 29.1875 22.6251 28.5568 23.3921C27.9318 24.1592 27.054 25.0881 25.9233 26.179L22.9148 29.2387V29.358H30.517V32.0001H18.5511Z" fill="black"/>
</svg>
