<svg width="164" height="150" viewBox="0 0 164 150" fill="none" xmlns="http://www.w3.org/2000/svg">
<path d="M0 0H150V150H0V0Z" fill="white" fill-opacity="0.01"/>
<path d="M95 37.5C95 48.5457 86.0457 57.5 75 57.5C63.9543 57.5 55 48.5457 55 37.5C55 26.4543 63.9543 17.5 75 17.5C86.0457 17.5 95 26.4543 95 37.5Z" stroke="#222222" stroke-width="10" stroke-linecap="round" stroke-linejoin="round"/>
<mask id="path-3-inside-1_44_332" fill="white">
<path d="M131.25 137.5C131.25 106.434 106.066 81.25 75 81.25C43.9341 81.25 18.75 106.434 18.75 137.5"/>
</mask>
<path d="M121.25 137.5C121.25 143.023 125.727 147.5 131.25 147.5C136.773 147.5 141.25 143.023 141.25 137.5H121.25ZM8.75 137.5C8.75 143.023 13.2272 147.5 18.75 147.5C24.2728 147.5 28.75 143.023 28.75 137.5H8.75ZM141.25 137.5C141.25 100.911 111.589 71.25 75 71.25V91.25C100.543 91.25 121.25 111.957 121.25 137.5H141.25ZM75 71.25C38.4112 71.25 8.75 100.911 8.75 137.5H28.75C28.75 111.957 49.4569 91.25 75 91.25V71.25Z" fill="#222222" mask="url(#path-3-inside-1_44_332)"/>
<path d="M114 41H164V84.3824H114V41Z" fill="white" fill-opacity="0.01"/>
<path d="M160.427 52.8348C161.472 51.9324 161.588 50.3538 160.685 49.3087C159.783 48.2637 158.204 48.1481 157.159 49.0504L160.427 52.8348ZM131.58 74.4414L129.946 76.3336C130.884 77.144 132.275 77.144 133.214 76.3336L131.58 74.4414ZM157.159 49.0504L129.946 72.5493L133.214 76.3336L160.427 52.8348L157.159 49.0504ZM133.214 72.5493L120.844 61.868L117.576 65.6523L129.946 76.3336L133.214 72.5493Z" fill="#0C8A09"/>
</svg>
